<svg width="156" height="107" viewBox="0 0 156 107" fill="none" xmlns="http://www.w3.org/2000/svg">
<path fill-rule="evenodd" clip-rule="evenodd" d="M82.083 0.112305C101.062 1.33788 117.344 12.4598 125.825 28.3701C138.958 36.0649 148.987 44.9711 154.166 50V50C156.501 52.1554 156.501 55.8446 154.166 58V58C148.88 63.1327 138.543 72.3051 125.009 80.1055C116.326 95.2248 100.469 105.699 82.083 106.887L74.083 106.812C56.4671 105.344 41.2757 95.3441 32.6553 80.9541C18.3866 72.9799 7.47964 63.3204 2 58V58C-0.395019 55.8711 -0.395019 52.1289 2 50V50C7.36952 44.7865 17.9501 35.4062 31.7988 27.5283C40.2454 12.3456 55.8683 1.70446 74.083 0.1875L82.083 0.112305ZM82.083 93.8896C91.1993 93.3978 99.9138 91.2673 107.978 88.2266C100.881 94.2392 91.9207 98.1188 82.083 98.8672V93.8896ZM74.083 98.7773C64.9967 97.8852 56.6963 94.3209 49.9756 88.8799C57.5346 91.5699 65.636 93.4349 74.083 93.8906V98.7773ZM38.4883 75.0254C35.7128 69.8665 33.9047 64.1109 33.3047 58H42.083C58.3533 58 71.7862 70.1429 73.8164 85.8604C61.0978 85.0417 49.0389 80.6685 38.4883 75.0254ZM82.3486 85.8604C84.3788 70.1428 97.8127 58 114.083 58H123.861C123.291 63.8118 121.627 69.3022 119.078 74.2637C108.2 80.2718 95.6341 85.0054 82.3486 85.8604ZM59.5361 54C67.6079 50.0795 74.1625 43.5249 78.083 35.4531C82.0034 43.5247 88.5575 50.0794 96.6289 54C88.5577 57.9205 82.0035 64.4747 78.083 72.5459C74.1624 64.4745 67.6077 57.9204 59.5361 54ZM27.1084 68.1338C21.9367 64.6304 17.4661 61.0892 13.8691 58H25.2705C25.5606 61.4833 26.1829 64.8721 27.1084 68.1338ZM130.287 67.2891C131.085 64.2881 131.63 61.1839 131.896 58H142.296C138.988 60.8415 134.939 64.064 130.287 67.2891ZM37.7773 33.3545C48.4954 27.5272 60.8118 22.9757 73.8164 22.1387C71.7866 37.8566 58.3536 50 42.083 50H33.2158C33.6677 44.0594 35.2625 38.4388 37.7773 33.3545ZM131.97 50C131.769 46.8946 131.303 43.8616 130.595 40.9229C135.118 44.0766 139.06 47.2212 142.296 50H131.97ZM114.083 50C97.8124 50 84.3784 37.8567 82.3486 22.1387C95.9088 23.0113 108.72 27.9234 119.752 34.1084C122.057 38.9925 123.52 44.3514 123.95 50H114.083ZM13.8691 50C17.3891 46.977 21.7459 43.5215 26.7773 40.0918C25.9524 43.2885 25.4158 46.601 25.1963 50H13.8691ZM109.951 20.541C101.343 17.094 91.9482 14.6416 82.083 14.1094V8.13184C92.8554 8.95129 102.579 13.5226 109.951 20.541ZM47.9375 19.8682C54.9835 13.4442 64.0556 9.20617 74.083 8.22168V14.1094C64.872 14.6063 56.0712 16.7769 47.9375 19.8682Z" fill="#F8F9FA"/>
</svg>
